<svg width="75" height="64" viewBox="0 0 75 64" fill="none" xmlns="http://www.w3.org/2000/svg">
<path d="M39.1798 20.0658C39.577 19.6356 40.1156 19.3939 40.6772 19.3939C41.2388 19.3939 41.7774 19.6356 42.1746 20.0658L51.7055 30.3916C52.1025 30.8219 52.3256 31.4054 52.3256 32.0139C52.3256 32.6223 52.1025 33.2058 51.7055 33.6362L42.1746 43.9619C41.7752 44.3799 41.2402 44.6112 40.6848 44.606C40.1295 44.6007 39.5983 44.3594 39.2056 43.934C38.8129 43.5085 38.5902 42.933 38.5853 42.3314C38.5805 41.7297 38.794 41.1501 39.1798 40.7173L44.9132 34.3085H24.7924C24.2307 34.3085 23.692 34.0667 23.2948 33.6364C22.8976 33.2061 22.6744 32.6224 22.6744 32.0139C22.6744 31.4053 22.8976 30.8216 23.2948 30.3913C23.692 29.961 24.2307 29.7192 24.7924 29.7192H44.9132L39.1798 23.3104C38.7827 22.8801 38.5597 22.2965 38.5597 21.6881C38.5597 21.0796 38.7827 20.4961 39.1798 20.0658Z" fill="black"/>
</svg>
