<svg width="52" height="44" viewBox="0 0 52 44" fill="none" xmlns="http://www.w3.org/2000/svg">
<path d="M26 31.1667C24.8507 31.1667 23.7485 30.7804 22.9359 30.0927C22.1232 29.4051 21.6667 28.4725 21.6667 27.5C21.6667 25.465 23.595 23.8333 26 23.8333C27.1493 23.8333 28.2515 24.2196 29.0641 24.9073C29.8768 25.5949 30.3333 26.5275 30.3333 27.5C30.3333 28.4725 29.8768 29.4051 29.0641 30.0927C28.2515 30.7804 27.1493 31.1667 26 31.1667ZM39 36.6667V18.3333H13V36.6667H39ZM39 14.6667C40.1493 14.6667 41.2515 15.053 42.0641 15.7406C42.8768 16.4282 43.3333 17.3609 43.3333 18.3333V36.6667C43.3333 37.6391 42.8768 38.5718 42.0641 39.2594C41.2515 39.947 40.1493 40.3333 39 40.3333H13C11.8507 40.3333 10.7485 39.947 9.93586 39.2594C9.1232 38.5718 8.66666 37.6391 8.66666 36.6667V18.3333C8.66666 16.2983 10.595 14.6667 13 14.6667H15.1667V11C15.1667 8.56885 16.308 6.23727 18.3397 4.51819C20.3713 2.7991 23.1268 1.83333 26 1.83333C27.4226 1.83333 28.8314 2.07043 30.1457 2.5311C31.4601 2.99177 32.6543 3.66698 33.6603 4.51819C34.6663 5.36939 35.4643 6.37992 36.0087 7.49207C36.5531 8.60422 36.8333 9.79622 36.8333 11V14.6667H39ZM26 5.5C24.2761 5.5 22.6228 6.07946 21.4038 7.11091C20.1848 8.14236 19.5 9.54131 19.5 11V14.6667H32.5V11C32.5 9.54131 31.8152 8.14236 30.5962 7.11091C29.3772 6.07946 27.7239 5.5 26 5.5Z" fill="black"/>
</svg>
