<svg width="56" height="56" viewBox="0 0 56 56" fill="none" xmlns="http://www.w3.org/2000/svg">
<path d="M28 28.5833C26.2694 28.5833 24.5777 28.0702 23.1388 27.1087C21.6998 26.1472 20.5783 24.7807 19.916 23.1818C19.2538 21.583 19.0805 19.8236 19.4181 18.1263C19.7557 16.429 20.5891 14.8699 21.8128 13.6461C23.0365 12.4224 24.5956 11.5891 26.293 11.2515C27.9903 10.9138 29.7496 11.0871 31.3485 11.7494C32.9473 12.4117 34.3139 13.5332 35.2754 14.9721C36.2368 16.411 36.75 18.1027 36.75 19.8333C36.75 22.154 35.8281 24.3796 34.1872 26.0205C32.5462 27.6615 30.3206 28.5833 28 28.5833ZM28 14.5833C26.9616 14.5833 25.9466 14.8912 25.0832 15.4681C24.2199 16.045 23.547 16.8649 23.1496 17.8242C22.7523 18.7836 22.6483 19.8392 22.8509 20.8576C23.0534 21.876 23.5535 22.8114 24.2877 23.5456C25.0219 24.2799 25.9574 24.7799 26.9758 24.9825C27.9942 25.185 29.0498 25.0811 30.0091 24.6837C30.9684 24.2863 31.7883 23.6134 32.3652 22.7501C32.9421 21.8867 33.25 20.8717 33.25 19.8333C33.25 18.4409 32.6969 17.1056 31.7123 16.121C30.7277 15.1365 29.3924 14.5833 28 14.5833ZM44.3333 44.9167C43.8711 44.9106 43.4295 44.7243 43.1026 44.3974C42.7757 44.0705 42.5894 43.6289 42.5833 43.1667C42.5833 38.6167 40.11 35.5833 28 35.5833C15.89 35.5833 13.4167 38.6167 13.4167 43.1667C13.4167 43.6308 13.2323 44.0759 12.9041 44.4041C12.5759 44.7323 12.1308 44.9167 11.6667 44.9167C11.2025 44.9167 10.7574 44.7323 10.4292 44.4041C10.101 44.0759 9.91666 43.6308 9.91666 43.1667C9.91666 32.0833 22.5867 32.0833 28 32.0833C33.4133 32.0833 46.0833 32.0833 46.0833 43.1667C46.0773 43.6289 45.891 44.0705 45.5641 44.3974C45.2372 44.7243 44.7956 44.9106 44.3333 44.9167Z" fill="black"/>
</svg>
